<svg width="114" height="19" viewBox="0 0 114 19" fill="none" xmlns="http://www.w3.org/2000/svg">
<path d="M9.24494 0.255127L11.8641 5.89504L18.0374 6.64322L13.4829 10.8771L14.679 16.9794L9.24494 13.9561L3.8109 16.9794L5.00697 10.8771L0.452479 6.64322L6.62573 5.89504L9.24494 0.255127Z" fill="#FFC633"/>
<path d="M33.0468 0.255127L35.666 5.89504L41.8393 6.64322L37.2848 10.8771L38.4809 16.9794L33.0468 13.9561L27.6128 16.9794L28.8089 10.8771L24.2544 6.64322L30.4276 5.89504L33.0468 0.255127Z" fill="#FFC633"/>
<path d="M56.8487 0.255127L59.4679 5.89504L65.6412 6.64322L61.0867 10.8771L62.2827 16.9794L56.8487 13.9561L51.4147 16.9794L52.6107 10.8771L48.0562 6.64322L54.2295 5.89504L56.8487 0.255127Z" fill="#FFC633"/>
<path d="M82.6356 9.624H81.8376V8.924L84.9316 5.872H80.1296V4.976H86.2056V5.788L83.2096 8.77C85.0856 8.868 86.4296 10.058 86.4296 11.878C86.4296 13.866 84.9736 15.168 82.9436 15.168C80.9696 15.168 79.6396 13.95 79.6396 11.948H80.6336C80.6336 13.39 81.5296 14.258 82.9436 14.258C84.4416 14.258 85.4076 13.306 85.4076 11.85C85.4076 10.478 84.4276 9.624 82.6356 9.624ZM88.5429 15.154C88.0669 15.154 87.6609 14.762 87.6609 14.3C87.6609 13.824 88.0669 13.418 88.5429 13.418C89.0189 13.418 89.4249 13.824 89.4249 14.3C89.4249 14.762 89.0189 15.154 88.5429 15.154ZM90.5003 9.988C90.5003 6.88 92.0263 4.78 94.5183 4.78C96.9963 4.78 98.5223 6.88 98.5223 9.988C98.5223 13.11 97.0243 15.182 94.5183 15.182C91.9983 15.182 90.5003 13.11 90.5003 9.988ZM91.4943 9.988C91.4943 12.592 92.6003 14.272 94.5183 14.272C96.4363 14.272 97.5423 12.592 97.5423 9.988C97.5423 7.37 96.4363 5.704 94.5183 5.704C92.6003 5.704 91.4943 7.37 91.4943 9.988ZM100.239 15H99.287L103.193 4.976H104.173L100.239 15Z" fill="black"/>
<path d="M108.228 15.168C106.212 15.168 104.924 13.908 104.924 11.934H105.932C105.932 13.376 106.814 14.244 108.242 14.244C109.754 14.244 110.734 13.236 110.734 11.752C110.734 10.352 109.824 9.246 108.242 9.246C107.318 9.246 106.478 9.666 105.932 10.268L105.134 10.016L106.338 4.976H111.182V5.9H107.066L106.31 9.05C106.87 8.602 107.598 8.35 108.382 8.35C110.468 8.35 111.756 9.848 111.756 11.724C111.756 13.74 110.328 15.168 108.228 15.168Z" fill="black" fill-opacity="0.6"/>
</svg>
