<svg width="138" height="19" viewBox="0 0 138 19" fill="none" xmlns="http://www.w3.org/2000/svg">
<path d="M9.24494 0.255127L11.8641 5.89504L18.0374 6.64322L13.4829 10.8771L14.679 16.9794L9.24494 13.9561L3.8109 16.9794L5.00697 10.8771L0.452479 6.64322L6.62573 5.89504L9.24494 0.255127Z" fill="#FFC633"/>
<path d="M33.0468 0.255127L35.666 5.89504L41.8393 6.64322L37.2848 10.8771L38.4809 16.9794L33.0468 13.9561L27.6128 16.9794L28.8089 10.8771L24.2544 6.64322L30.4276 5.89504L33.0468 0.255127Z" fill="#FFC633"/>
<path d="M56.8487 0.255127L59.4679 5.89504L65.6412 6.64322L61.0867 10.8771L62.2827 16.9794L56.8487 13.9561L51.4147 16.9794L52.6107 10.8771L48.0562 6.64322L54.2295 5.89504L56.8487 0.255127Z" fill="#FFC633"/>
<path d="M80.6506 0.255127L83.2698 5.89504L89.443 6.64322L84.8885 10.8771L86.0846 16.9794L80.6506 13.9561L75.2165 16.9794L76.4126 10.8771L71.8581 6.64322L78.0314 5.89504L80.6506 0.255127Z" fill="#FFC633"/>
<path d="M110.876 12.872H109.7V15H108.72V12.872H103.456V11.976L108.356 4.976H109.7V11.976H110.876V12.872ZM104.548 11.976H108.72V6.012L104.548 11.976ZM113.138 15.154C112.662 15.154 112.256 14.762 112.256 14.3C112.256 13.824 112.662 13.418 113.138 13.418C113.614 13.418 114.02 13.824 114.02 14.3C114.02 14.762 113.614 15.154 113.138 15.154ZM115.738 9.988C115.738 6.88 117.264 4.78 119.756 4.78C122.234 4.78 123.76 6.88 123.76 9.988C123.76 13.11 122.262 15.182 119.756 15.182C117.236 15.182 115.738 13.11 115.738 9.988ZM116.732 9.988C116.732 12.592 117.838 14.272 119.756 14.272C121.674 14.272 122.78 12.592 122.78 9.988C122.78 7.37 121.674 5.704 119.756 5.704C117.838 5.704 116.732 7.37 116.732 9.988ZM125.476 15H124.524L128.43 4.976H129.41L125.476 15Z" fill="black"/>
<path d="M133.465 15.168C131.449 15.168 130.161 13.908 130.161 11.934H131.169C131.169 13.376 132.051 14.244 133.479 14.244C134.991 14.244 135.971 13.236 135.971 11.752C135.971 10.352 135.061 9.246 133.479 9.246C132.555 9.246 131.715 9.666 131.169 10.268L130.371 10.016L131.575 4.976H136.419V5.9H132.303L131.547 9.05C132.107 8.602 132.835 8.35 133.619 8.35C135.705 8.35 136.993 9.848 136.993 11.724C136.993 13.74 135.565 15.168 133.465 15.168Z" fill="black" fill-opacity="0.6"/>
</svg>
