<svg width="161" height="19" viewBox="0 0 161 19" fill="none" xmlns="http://www.w3.org/2000/svg">
<path d="M9.24494 0.255127L11.8641 5.89504L18.0374 6.64322L13.4829 10.8771L14.679 16.9794L9.24494 13.9561L3.8109 16.9794L5.00697 10.8771L0.452479 6.64322L6.62573 5.89504L9.24494 0.255127Z" fill="#FFC633"/>
<path d="M33.0468 0.255127L35.666 5.89504L41.8393 6.64322L37.2848 10.8771L38.4809 16.9794L33.0468 13.9561L27.6128 16.9794L28.8089 10.8771L24.2544 6.64322L30.4276 5.89504L33.0468 0.255127Z" fill="#FFC633"/>
<path d="M56.8487 0.255127L59.4679 5.89504L65.6412 6.64322L61.0867 10.8771L62.2827 16.9794L56.8487 13.9561L51.4147 16.9794L52.6107 10.8771L48.0562 6.64322L54.2295 5.89504L56.8487 0.255127Z" fill="#FFC633"/>
<path d="M80.6506 0.255127L83.2698 5.89504L89.4431 6.64322L84.8886 10.8771L86.0846 16.9794L80.6506 13.9561L75.2166 16.9794L76.4126 10.8771L71.8581 6.64322L78.0314 5.89504L80.6506 0.255127Z" fill="#FFC633"/>
<path d="M104.452 0.255127L107.072 5.89504L113.245 6.64322L108.69 10.8771L109.887 16.9794L104.452 13.9561L99.0184 16.9794L100.215 10.8771L95.66 6.64322L101.833 5.89504L104.452 0.255127Z" fill="#FFC633"/>
<path d="M130.757 15.168C128.741 15.168 127.453 13.908 127.453 11.934H128.461C128.461 13.376 129.343 14.244 130.771 14.244C132.283 14.244 133.263 13.236 133.263 11.752C133.263 10.352 132.353 9.246 130.771 9.246C129.847 9.246 129.007 9.666 128.461 10.268L127.663 10.016L128.867 4.976H133.711V5.9H129.595L128.839 9.05C129.399 8.602 130.127 8.35 130.911 8.35C132.997 8.35 134.285 9.848 134.285 11.724C134.285 13.74 132.857 15.168 130.757 15.168ZM136.694 15.154C136.218 15.154 135.812 14.762 135.812 14.3C135.812 13.824 136.218 13.418 136.694 13.418C137.17 13.418 137.576 13.824 137.576 14.3C137.576 14.762 137.17 15.154 136.694 15.154ZM138.651 9.988C138.651 6.88 140.177 4.78 142.669 4.78C145.147 4.78 146.673 6.88 146.673 9.988C146.673 13.11 145.175 15.182 142.669 15.182C140.149 15.182 138.651 13.11 138.651 9.988ZM139.645 9.988C139.645 12.592 140.751 14.272 142.669 14.272C144.587 14.272 145.693 12.592 145.693 9.988C145.693 7.37 144.587 5.704 142.669 5.704C140.751 5.704 139.645 7.37 139.645 9.988ZM148.39 15H147.438L151.344 4.976H152.324L148.39 15Z" fill="black"/>
<path d="M156.379 15.168C154.363 15.168 153.075 13.908 153.075 11.934H154.083C154.083 13.376 154.965 14.244 156.393 14.244C157.905 14.244 158.885 13.236 158.885 11.752C158.885 10.352 157.975 9.246 156.393 9.246C155.469 9.246 154.629 9.666 154.083 10.268L153.285 10.016L154.489 4.976H159.333V5.9H155.217L154.461 9.05C155.021 8.602 155.749 8.35 156.533 8.35C158.619 8.35 159.907 9.848 159.907 11.724C159.907 13.74 158.479 15.168 156.379 15.168Z" fill="black" fill-opacity="0.6"/>
</svg>
